<svg width="360" height="70" viewBox="0 0 360 70" fill="none" xmlns="http://www.w3.org/2000/svg">
<path fill-rule="evenodd" clip-rule="evenodd" d="M336.106 15.1437C336.252 15.2889 336.367 15.4613 336.446 15.6511C336.525 15.841 336.565 16.0445 336.565 16.25C336.565 16.4555 336.525 16.659 336.446 16.8488C336.367 17.0387 336.252 17.2111 336.106 17.3562L318.459 35L336.106 52.6437C336.4 52.9371 336.564 53.3351 336.564 53.75C336.564 54.1649 336.4 54.5628 336.106 54.8562C335.813 55.1496 335.415 55.3145 335 55.3145C334.585 55.3145 334.187 55.1496 333.894 54.8562L315.144 36.1062C314.998 35.9611 314.883 35.7887 314.804 35.5988C314.725 35.409 314.685 35.2055 314.685 35C314.685 34.7945 314.725 34.591 314.804 34.4011C314.883 34.2113 314.998 34.0389 315.144 33.8937L333.894 15.1437C334.039 14.9982 334.211 14.8828 334.401 14.804C334.591 14.7252 334.794 14.6847 335 14.6847C335.206 14.6847 335.409 14.7252 335.599 14.804C335.789 14.8828 335.961 14.9982 336.106 15.1437Z" fill="black"/>
<path fill-rule="evenodd" clip-rule="evenodd" d="M348.606 15.1437C348.752 15.2889 348.867 15.4613 348.946 15.6511C349.025 15.841 349.065 16.0445 349.065 16.25C349.065 16.4555 349.025 16.659 348.946 16.8488C348.867 17.0387 348.752 17.2111 348.606 17.3562L330.959 35L348.606 52.6437C348.752 52.789 348.867 52.9615 348.945 53.1513C349.024 53.3411 349.064 53.5445 349.064 53.75C349.064 53.9554 349.024 54.1589 348.945 54.3487C348.867 54.5385 348.752 54.711 348.606 54.8562C348.461 55.0015 348.288 55.1167 348.099 55.1954C347.909 55.274 347.705 55.3145 347.5 55.3145C347.295 55.3145 347.091 55.274 346.901 55.1954C346.711 55.1167 346.539 55.0015 346.394 54.8562L327.644 36.1062C327.498 35.9611 327.383 35.7887 327.304 35.5988C327.225 35.409 327.185 35.2055 327.185 35C327.185 34.7945 327.225 34.591 327.304 34.4011C327.383 34.2113 327.498 34.0389 327.644 33.8937L346.394 15.1437C346.539 14.9982 346.711 14.8828 346.901 14.804C347.091 14.7252 347.294 14.6847 347.5 14.6847C347.706 14.6847 347.909 14.7252 348.099 14.804C348.289 14.8828 348.461 14.9982 348.606 15.1437Z" fill="black"/>
</svg>
