<svg width="70" height="70" viewBox="0 0 70 70" fill="none" xmlns="http://www.w3.org/2000/svg">
<g clip-path="url(#clip0_0_14)">
<path fill-rule="evenodd" clip-rule="evenodd" d="M35 13.125C39.7278 13.1268 44.3278 14.6603 48.111 17.4958C51.8942 20.3313 54.6569 24.3161 55.9853 28.8535C57.3138 33.3908 57.1364 38.2364 55.4799 42.6645C53.8234 47.0927 50.7768 50.8649 46.7965 53.4163C42.8162 55.9677 38.1164 57.1608 33.4011 56.8171C28.6858 56.4734 24.2088 54.6112 20.6406 51.5095C17.0724 48.4079 14.6051 44.2337 13.6083 39.6121C12.6115 34.9906 13.1388 30.1705 15.1113 25.8738C15.326 25.3514 15.3303 24.7662 15.1233 24.2407C14.9164 23.7152 14.5142 23.2901 14.0009 23.0543C13.4877 22.8186 12.9031 22.7906 12.3697 22.976C11.8362 23.1615 11.3951 23.5461 11.1388 24.0494C8.77195 29.2057 8.13943 34.9901 9.33597 40.536C10.5325 46.082 13.4937 51.0911 17.776 54.8128C22.0583 58.5346 27.4311 60.7688 33.0897 61.1807C38.7483 61.5926 44.3881 60.1601 49.1642 57.0978C53.9404 54.0354 57.5958 49.508 59.5829 44.1938C61.57 38.8796 61.7819 33.0646 60.1868 27.6199C58.5916 22.1751 55.2754 17.3937 50.7348 13.9919C46.1942 10.5901 40.6736 8.75096 35 8.75V13.125Z" fill="black"/>
<path d="M35 19.5388V2.33626C34.9999 2.12843 34.9406 1.92493 34.8291 1.74958C34.7175 1.57423 34.5583 1.43429 34.3701 1.34615C34.1819 1.25801 33.9724 1.22532 33.7663 1.25191C33.5602 1.27849 33.3659 1.36325 33.2062 1.49626L22.8812 10.0975C22.7581 10.2002 22.6591 10.3286 22.5912 10.4738C22.5232 10.6189 22.488 10.7772 22.488 10.9375C22.488 11.0978 22.5232 11.2561 22.5912 11.4013C22.6591 11.5464 22.7581 11.6749 22.8812 11.7775L33.2062 20.3788C33.3659 20.5118 33.5602 20.5965 33.7663 20.6231C33.9724 20.6497 34.1819 20.617 34.3701 20.5289C34.5583 20.4407 34.7175 20.3008 34.8291 20.1254C34.9406 19.9501 34.9999 19.7466 35 19.5388Z" fill="black"/>
</g>
<defs>
<clipPath id="clip0_0_14">
<rect width="70" height="70" rx="5" fill="white"/>
</clipPath>
</defs>
</svg>
