<svg width="70" height="70" viewBox="0 0 70 70" fill="none" xmlns="http://www.w3.org/2000/svg">
<g clip-path="url(#clip0_9_85)">
<path d="M24.0625 24.0625C24.6427 24.0625 25.1991 24.293 25.6093 24.7032C26.0195 25.1134 26.25 25.6698 26.25 26.25V52.5C26.25 53.0802 26.0195 53.6366 25.6093 54.0468C25.1991 54.457 24.6427 54.6875 24.0625 54.6875C23.4823 54.6875 22.9259 54.457 22.5157 54.0468C22.1055 53.6366 21.875 53.0802 21.875 52.5V26.25C21.875 25.6698 22.1055 25.1134 22.5157 24.7032C22.9259 24.293 23.4823 24.0625 24.0625 24.0625ZM35 24.0625C35.5802 24.0625 36.1366 24.293 36.5468 24.7032C36.957 25.1134 37.1875 25.6698 37.1875 26.25V52.5C37.1875 53.0802 36.957 53.6366 36.5468 54.0468C36.1366 54.457 35.5802 54.6875 35 54.6875C34.4198 54.6875 33.8634 54.457 33.4532 54.0468C33.043 53.6366 32.8125 53.0802 32.8125 52.5V26.25C32.8125 25.6698 33.043 25.1134 33.4532 24.7032C33.8634 24.293 34.4198 24.0625 35 24.0625ZM48.125 26.25C48.125 25.6698 47.8945 25.1134 47.4843 24.7032C47.0741 24.293 46.5177 24.0625 45.9375 24.0625C45.3573 24.0625 44.8009 24.293 44.3907 24.7032C43.9805 25.1134 43.75 25.6698 43.75 26.25V52.5C43.75 53.0802 43.9805 53.6366 44.3907 54.0468C44.8009 54.457 45.3573 54.6875 45.9375 54.6875C46.5177 54.6875 47.0741 54.457 47.4843 54.0468C47.8945 53.6366 48.125 53.0802 48.125 52.5V26.25Z" fill="black"/>
<path fill-rule="evenodd" clip-rule="evenodd" d="M63.4375 13.125C63.4375 14.2853 62.9766 15.3981 62.1561 16.2186C61.3356 17.0391 60.2228 17.5 59.0625 17.5H56.875V56.875C56.875 59.1956 55.9531 61.4212 54.3122 63.0622C52.6712 64.7031 50.4456 65.625 48.125 65.625H21.875C19.5544 65.625 17.3288 64.7031 15.6878 63.0622C14.0469 61.4212 13.125 59.1956 13.125 56.875V17.5H10.9375C9.77718 17.5 8.66438 17.0391 7.84391 16.2186C7.02344 15.3981 6.5625 14.2853 6.5625 13.125V8.75C6.5625 7.58968 7.02344 6.47688 7.84391 5.65641C8.66438 4.83594 9.77718 4.375 10.9375 4.375H26.25C26.25 3.21468 26.7109 2.10188 27.5314 1.28141C28.3519 0.460936 29.4647 0 30.625 0L39.375 0C40.5353 0 41.6481 0.460936 42.4686 1.28141C43.2891 2.10188 43.75 3.21468 43.75 4.375H59.0625C60.2228 4.375 61.3356 4.83594 62.1561 5.65641C62.9766 6.47688 63.4375 7.58968 63.4375 8.75V13.125ZM18.0163 17.5L17.5 17.7581V56.875C17.5 58.0353 17.9609 59.1481 18.7814 59.9686C19.6019 60.7891 20.7147 61.25 21.875 61.25H48.125C49.2853 61.25 50.3981 60.7891 51.2186 59.9686C52.0391 59.1481 52.5 58.0353 52.5 56.875V17.7581L51.9837 17.5H18.0163ZM10.9375 13.125V8.75H59.0625V13.125H10.9375Z" fill="black"/>
</g>
<defs>
<clipPath id="clip0_9_85">
<rect width="70" height="70" rx="5" fill="white"/>
</clipPath>
</defs>
</svg>
