<svg width="70" height="70" viewBox="0 0 70 70" fill="none" xmlns="http://www.w3.org/2000/svg">
<g clip-path="url(#clip0_9_89)">
<path d="M9.25 4.375C8.08968 4.375 6.97688 4.83594 6.15641 5.65641C5.33594 6.47688 4.875 7.58968 4.875 8.75V43.75C4.875 44.9103 5.33594 46.0231 6.15641 46.8436C6.97688 47.6641 8.08968 48.125 9.25 48.125H51.1888C53.5092 48.1255 55.7344 49.0477 57.375 50.6888L66.125 59.4388V8.75C66.125 7.58968 65.6641 6.47688 64.8436 5.65641C64.0231 4.83594 62.9103 4.375 61.75 4.375H9.25ZM61.75 0C64.0706 0 66.2962 0.921872 67.9372 2.56282C69.5781 4.20376 70.5 6.42936 70.5 8.75V64.7194C70.4999 65.1522 70.3714 65.5753 70.1308 65.9351C69.8901 66.2949 69.5481 66.5752 69.1481 66.7405C68.7481 66.9059 68.308 66.9488 67.8836 66.864C67.4592 66.7791 67.0694 66.5702 66.7637 66.2637L54.2819 53.7819C53.4616 52.9613 52.349 52.5002 51.1888 52.5H9.25C6.92936 52.5 4.70376 51.5781 3.06282 49.9372C1.42187 48.2962 0.5 46.0706 0.5 43.75V8.75C0.5 6.42936 1.42187 4.20376 3.06282 2.56282C4.70376 0.921872 6.92936 0 9.25 0L61.75 0Z" fill="black"/>
<path d="M13.625 15.3125C13.625 14.7323 13.8555 14.1759 14.2657 13.7657C14.6759 13.3555 15.2323 13.125 15.8125 13.125H55.1875C55.7677 13.125 56.3241 13.3555 56.7343 13.7657C57.1445 14.1759 57.375 14.7323 57.375 15.3125C57.375 15.8927 57.1445 16.4491 56.7343 16.8593C56.3241 17.2695 55.7677 17.5 55.1875 17.5H15.8125C15.2323 17.5 14.6759 17.2695 14.2657 16.8593C13.8555 16.4491 13.625 15.8927 13.625 15.3125ZM13.625 26.25C13.625 25.6698 13.8555 25.1134 14.2657 24.7032C14.6759 24.293 15.2323 24.0625 15.8125 24.0625H55.1875C55.7677 24.0625 56.3241 24.293 56.7343 24.7032C57.1445 25.1134 57.375 25.6698 57.375 26.25C57.375 26.8302 57.1445 27.3866 56.7343 27.7968C56.3241 28.207 55.7677 28.4375 55.1875 28.4375H15.8125C15.2323 28.4375 14.6759 28.207 14.2657 27.7968C13.8555 27.3866 13.625 26.8302 13.625 26.25ZM13.625 37.1875C13.625 36.6073 13.8555 36.0509 14.2657 35.6407C14.6759 35.2305 15.2323 35 15.8125 35H37.6875C38.2677 35 38.8241 35.2305 39.2343 35.6407C39.6445 36.0509 39.875 36.6073 39.875 37.1875C39.875 37.7677 39.6445 38.3241 39.2343 38.7343C38.8241 39.1445 38.2677 39.375 37.6875 39.375H15.8125C15.2323 39.375 14.6759 39.1445 14.2657 38.7343C13.8555 38.3241 13.625 37.7677 13.625 37.1875Z" fill="black"/>
</g>
<defs>
<clipPath id="clip0_9_89">
<rect width="70" height="70" rx="5" fill="white"/>
</clipPath>
</defs>
</svg>
