<svg width="70" height="70" viewBox="0 0 70 70" fill="none" xmlns="http://www.w3.org/2000/svg">
<g clip-path="url(#clip0_0_18)">
<path fill-rule="evenodd" clip-rule="evenodd" d="M35 13.125C30.2722 13.1268 25.6722 14.6603 21.889 17.4958C18.1059 20.3313 15.3432 24.3161 14.0147 28.8535C12.6863 33.3908 12.8636 38.2364 14.5201 42.6645C16.1767 47.0927 19.2232 50.8649 23.2035 53.4163C27.1838 55.9677 31.8836 57.1608 36.5989 56.8171C41.3142 56.4734 45.7912 54.6112 49.3594 51.5095C52.9276 48.4079 55.3949 44.2337 56.3917 39.6121C57.3885 34.9906 56.8612 30.1705 54.8887 25.8738C54.6741 25.3514 54.6697 24.7662 54.8767 24.2407C55.0837 23.7152 55.4859 23.2901 55.9991 23.0543C56.5124 22.8186 57.0969 22.7906 57.6304 22.976C58.1638 23.1615 58.6049 23.5461 58.8612 24.0494C61.2281 29.2057 61.8606 34.9901 60.6641 40.536C59.4675 46.082 56.5063 51.0911 52.224 54.8128C47.9418 58.5346 42.5689 60.7688 36.9103 61.1807C31.2517 61.5926 25.6119 60.1601 20.8358 57.0978C16.0597 54.0354 12.4043 49.508 10.4171 44.1938C8.43002 38.8796 8.21815 33.0646 9.81327 27.6199C11.4084 22.1751 14.7246 17.3937 19.2652 13.9919C23.8058 10.5901 29.3264 8.75096 35 8.75V13.125Z" fill="black"/>
<path d="M35 19.5388V2.33626C35.0001 2.12843 35.0594 1.92493 35.1709 1.74958C35.2825 1.57423 35.4417 1.43429 35.6299 1.34615C35.8181 1.25801 36.0275 1.22532 36.2337 1.25191C36.4398 1.27849 36.6341 1.36325 36.7937 1.49626L47.1188 10.0975C47.6438 10.535 47.6438 11.34 47.1188 11.7775L36.7937 20.3788C36.6341 20.5118 36.4398 20.5965 36.2337 20.6231C36.0275 20.6497 35.8181 20.617 35.6299 20.5289C35.4417 20.4407 35.2825 20.3008 35.1709 20.1254C35.0594 19.9501 35.0001 19.7466 35 19.5388Z" fill="black"/>
</g>
<defs>
<clipPath id="clip0_0_18">
<rect width="70" height="70" rx="5" fill="white"/>
</clipPath>
</defs>
</svg>
